G75*
G70*
%OFA0B0*%
%FSLAX24Y24*%
%IPPOS*%
%LPD*%
%AMOC8*
5,1,8,0,0,1.08239X$1,22.5*
%
%ADD10R,0.0671X0.0186*%
%ADD11R,0.0186X0.0671*%
%ADD12R,0.0217X0.0630*%
%ADD13C,0.0640*%
%ADD14C,0.1380*%
%ADD15R,0.0513X0.0474*%
%ADD16R,0.0710X0.0631*%
%ADD17R,0.0840X0.2180*%
%ADD18R,0.0474X0.0513*%
%ADD19OC8,0.0680*%
%ADD20C,0.0680*%
%ADD21C,0.0600*%
%ADD22R,0.0200X0.0470*%
%ADD23R,0.0960X0.0560*%
%ADD24R,0.0946X0.1497*%
%ADD25C,0.0674*%
%ADD26C,0.0966*%
%ADD27C,0.1660*%
%ADD28C,0.0740*%
%ADD29R,0.0680X0.0680*%
%ADD30R,0.0552X0.0395*%
%ADD31R,0.0631X0.0710*%
%ADD32R,0.0340X0.0880*%
%ADD33R,0.0867X0.1261*%
%ADD34R,0.0356X0.0671*%
%ADD35R,0.0474X0.0671*%
%ADD36C,0.0513*%
%ADD37C,0.0710*%
%ADD38C,0.0474*%
%ADD39R,0.1576X0.0631*%
%ADD40C,0.1084*%
%ADD41R,0.0631X0.0395*%
%ADD42C,0.0660*%
%ADD43R,0.0630X0.0394*%
%ADD44R,0.0946X0.0316*%
%ADD45R,0.0820X0.0820*%
%ADD46C,0.0820*%
%ADD47C,0.2080*%
%ADD48C,0.0440*%
D10*
X028598Y025667D03*
X028598Y025864D03*
X028598Y026061D03*
X028598Y026258D03*
X028598Y026455D03*
X028598Y026652D03*
X028598Y026849D03*
X028598Y027045D03*
X028598Y027242D03*
X028598Y027439D03*
X028598Y027636D03*
X028598Y027833D03*
X028598Y028030D03*
X028598Y028226D03*
X028598Y028423D03*
X028598Y028620D03*
X028598Y028817D03*
X028598Y029014D03*
X028598Y029211D03*
X028598Y029408D03*
X028598Y029604D03*
X028598Y029801D03*
X028598Y029998D03*
X028598Y030195D03*
X028598Y030392D03*
X034898Y030392D03*
X034898Y030195D03*
X034898Y029998D03*
X034898Y029801D03*
X034898Y029604D03*
X034898Y029408D03*
X034898Y029211D03*
X034898Y029014D03*
X034898Y028817D03*
X034898Y028620D03*
X034898Y028423D03*
X034898Y028226D03*
X034898Y028030D03*
X034898Y027833D03*
X034898Y027636D03*
X034898Y027439D03*
X034898Y027242D03*
X034898Y027045D03*
X034898Y026849D03*
X034898Y026652D03*
X034898Y026455D03*
X034898Y026258D03*
X034898Y026061D03*
X034898Y025864D03*
X034898Y025667D03*
D11*
X034110Y024880D03*
X033913Y024880D03*
X033717Y024880D03*
X033520Y024880D03*
X033323Y024880D03*
X033126Y024880D03*
X032929Y024880D03*
X032732Y024880D03*
X032535Y024880D03*
X032339Y024880D03*
X032142Y024880D03*
X031945Y024880D03*
X031748Y024880D03*
X031551Y024880D03*
X031354Y024880D03*
X031157Y024880D03*
X030961Y024880D03*
X030764Y024880D03*
X030567Y024880D03*
X030370Y024880D03*
X030173Y024880D03*
X029976Y024880D03*
X029780Y024880D03*
X029583Y024880D03*
X029386Y024880D03*
X029386Y031179D03*
X029583Y031179D03*
X029780Y031179D03*
X029976Y031179D03*
X030173Y031179D03*
X030370Y031179D03*
X030567Y031179D03*
X030764Y031179D03*
X030961Y031179D03*
X031157Y031179D03*
X031354Y031179D03*
X031551Y031179D03*
X031748Y031179D03*
X031945Y031179D03*
X032142Y031179D03*
X032339Y031179D03*
X032535Y031179D03*
X032732Y031179D03*
X032929Y031179D03*
X033126Y031179D03*
X033323Y031179D03*
X033520Y031179D03*
X033717Y031179D03*
X033913Y031179D03*
X034110Y031179D03*
D12*
X019781Y013725D03*
X019526Y013725D03*
X019270Y013725D03*
X019014Y013725D03*
X018758Y013725D03*
X018502Y013725D03*
X018246Y013725D03*
X017990Y013725D03*
X017734Y013725D03*
X017478Y013725D03*
X017222Y013725D03*
X016967Y013725D03*
X016711Y013725D03*
X016455Y013725D03*
X016455Y010846D03*
X016711Y010846D03*
X016967Y010846D03*
X017222Y010846D03*
X017478Y010846D03*
X017734Y010846D03*
X017990Y010846D03*
X018246Y010846D03*
X018502Y010846D03*
X018758Y010846D03*
X019014Y010846D03*
X019270Y010846D03*
X019526Y010846D03*
X019781Y010846D03*
D13*
X019248Y008140D03*
X019248Y007360D03*
X018264Y007360D03*
X018264Y008140D03*
D14*
X016386Y006290D03*
X021126Y006290D03*
X023874Y014250D03*
X023874Y024093D03*
X001236Y011789D03*
X001236Y051061D03*
X057339Y024093D03*
X057339Y014250D03*
X067181Y011789D03*
X067181Y051160D03*
D15*
X037988Y030392D03*
X037319Y030392D03*
X037319Y027636D03*
X037988Y027636D03*
X037988Y025864D03*
X037319Y025864D03*
X027161Y025667D03*
X026492Y025667D03*
X026492Y027636D03*
X027161Y027636D03*
X026472Y029604D03*
X025803Y029604D03*
X025803Y030589D03*
X026472Y030589D03*
X026177Y031573D03*
X025508Y031573D03*
X025508Y032754D03*
X026177Y032754D03*
X026177Y033541D03*
X025508Y033541D03*
X021748Y040825D03*
X021079Y040825D03*
X050114Y018089D03*
X050783Y018089D03*
X043106Y013463D03*
X042437Y013463D03*
X042437Y012675D03*
X043106Y012675D03*
X043106Y011888D03*
X042437Y011888D03*
X042437Y011100D03*
X043106Y011100D03*
X038462Y012439D03*
X037792Y012439D03*
X036462Y012439D03*
X035792Y012439D03*
X034962Y012439D03*
X034292Y012439D03*
X032837Y012439D03*
X032167Y012439D03*
X031337Y012439D03*
X030667Y012439D03*
X029337Y012439D03*
X028667Y012439D03*
X027837Y012439D03*
X027167Y012439D03*
X025837Y012439D03*
X025167Y012439D03*
X025167Y009439D03*
X025837Y009439D03*
X027167Y009439D03*
X027837Y009439D03*
X028667Y009439D03*
X029337Y009439D03*
X030667Y009439D03*
X031337Y009439D03*
X032167Y009439D03*
X032837Y009439D03*
X034167Y009439D03*
X034837Y009439D03*
X035792Y009439D03*
X036462Y009439D03*
X037792Y009439D03*
X038462Y009439D03*
X019976Y015431D03*
X019307Y015431D03*
X018500Y015431D03*
X017831Y015431D03*
D16*
X016787Y015667D03*
X016787Y016770D03*
X010390Y024821D03*
X010390Y025923D03*
X012457Y029644D03*
X012457Y030746D03*
X012457Y033089D03*
X012457Y034191D03*
X013047Y038305D03*
X014228Y038305D03*
X014228Y039408D03*
X013047Y039408D03*
X014031Y042931D03*
X014031Y044034D03*
X005567Y038620D03*
X005567Y037518D03*
X003205Y036947D03*
X003205Y035845D03*
X009209Y008404D03*
X009209Y007301D03*
D17*
X031157Y035578D03*
X031157Y039378D03*
D18*
X031157Y041081D03*
X031945Y041081D03*
X031945Y041750D03*
X031157Y041750D03*
X023480Y037518D03*
X023480Y036849D03*
X021413Y035352D03*
X021413Y034683D03*
X016689Y033974D03*
X016689Y033305D03*
X014524Y033207D03*
X014524Y033876D03*
X013638Y033876D03*
X013638Y033207D03*
X013539Y030530D03*
X013539Y029860D03*
X014425Y029860D03*
X014425Y030530D03*
X018461Y024624D03*
X018461Y023955D03*
X028598Y031435D03*
X028598Y032104D03*
X031551Y032813D03*
X031551Y033482D03*
X030764Y022754D03*
X030764Y022085D03*
X033224Y021986D03*
X033224Y022656D03*
X032929Y018522D03*
X032929Y017852D03*
X029976Y016061D03*
X029976Y015392D03*
X029018Y015274D03*
X029018Y014604D03*
X012555Y006711D03*
X012555Y006041D03*
X010587Y006041D03*
X010587Y006711D03*
X003697Y006711D03*
X003697Y006041D03*
X011965Y040293D03*
X011965Y040963D03*
X057929Y008187D03*
X057929Y007518D03*
X059898Y007518D03*
X059898Y008187D03*
X061866Y008187D03*
X061866Y007518D03*
X063835Y007518D03*
X063835Y008187D03*
D19*
X044606Y018671D03*
X043606Y018671D03*
X042606Y018671D03*
X041606Y018671D03*
X040606Y018671D03*
X039606Y018671D03*
X038606Y018671D03*
X037606Y018671D03*
X036606Y018671D03*
X036606Y019671D03*
X037606Y019671D03*
X038606Y019671D03*
X039606Y019671D03*
X040606Y019671D03*
X041606Y019671D03*
X042606Y019671D03*
X043606Y019671D03*
X044606Y019671D03*
X023882Y029573D03*
X022882Y029573D03*
X022882Y030573D03*
X023882Y030573D03*
X023882Y031573D03*
X022882Y031573D03*
X022882Y032573D03*
X023882Y032573D03*
X023882Y033573D03*
X022882Y033573D03*
X026236Y037372D03*
X026236Y038372D03*
X027236Y038372D03*
X027236Y037372D03*
X025236Y038372D03*
X025811Y050167D03*
X026811Y050167D03*
X027811Y050167D03*
X028811Y050167D03*
X029811Y050167D03*
X029811Y051167D03*
X028811Y051167D03*
X027811Y051167D03*
X026811Y051167D03*
X025811Y051167D03*
X020953Y051167D03*
X019953Y051167D03*
X019953Y050167D03*
X020953Y050167D03*
X018953Y050167D03*
X017953Y050167D03*
X016953Y050167D03*
X016953Y051167D03*
X017953Y051167D03*
X018953Y051167D03*
X034669Y051167D03*
X034669Y050167D03*
X035669Y050167D03*
X036669Y050167D03*
X037669Y050167D03*
X038669Y050167D03*
X038669Y051167D03*
X037669Y051167D03*
X036669Y051167D03*
X035669Y051167D03*
X051402Y051167D03*
X052402Y051167D03*
X053402Y051167D03*
X054402Y051167D03*
X055402Y051167D03*
X055402Y050167D03*
X054402Y050167D03*
X053402Y050167D03*
X052402Y050167D03*
X051402Y050167D03*
X060260Y050167D03*
X061260Y050167D03*
X062260Y050167D03*
X063260Y050167D03*
X064260Y050167D03*
X064260Y051167D03*
X063260Y051167D03*
X062260Y051167D03*
X061260Y051167D03*
X060260Y051167D03*
D20*
X025236Y037372D03*
X013047Y040809D03*
X013047Y041809D03*
X002319Y018892D03*
X002319Y017892D03*
X011587Y008345D03*
X012587Y008345D03*
X013587Y008345D03*
D21*
X003652Y004439D03*
X004652Y004439D03*
X010652Y004439D03*
X011652Y004439D03*
X012652Y004439D03*
X013652Y004439D03*
X057852Y004439D03*
X058852Y004439D03*
X059852Y004439D03*
X060852Y004439D03*
X061852Y004439D03*
X062852Y004439D03*
X063852Y004439D03*
X064852Y004439D03*
D22*
X032904Y014540D03*
X032648Y014540D03*
X032392Y014540D03*
X032136Y014540D03*
X031880Y014540D03*
X031624Y014540D03*
X031368Y014540D03*
X031112Y014540D03*
X030856Y014540D03*
X030600Y014540D03*
X030600Y016838D03*
X030856Y016838D03*
X031112Y016838D03*
X031368Y016838D03*
X031624Y016838D03*
X031880Y016838D03*
X032136Y016838D03*
X032392Y016838D03*
X032648Y016838D03*
X032904Y016838D03*
X018392Y030326D03*
X018136Y030326D03*
X017880Y030326D03*
X017624Y030326D03*
X017368Y030326D03*
X017112Y030326D03*
X016856Y030326D03*
X016600Y030326D03*
X016344Y030326D03*
X016089Y030326D03*
X015833Y030326D03*
X015577Y030326D03*
X015577Y032623D03*
X015833Y032623D03*
X016089Y032623D03*
X016344Y032623D03*
X016600Y032623D03*
X016856Y032623D03*
X017112Y032623D03*
X017368Y032623D03*
X017624Y032623D03*
X017880Y032623D03*
X018136Y032623D03*
X018392Y032623D03*
X020612Y036806D03*
X020868Y036806D03*
X021124Y036806D03*
X021380Y036806D03*
X021636Y036806D03*
X021892Y036806D03*
X022148Y036806D03*
X022404Y036806D03*
X022659Y036806D03*
X022915Y036806D03*
X022915Y039104D03*
X022659Y039104D03*
X022404Y039104D03*
X022148Y039104D03*
X021892Y039104D03*
X021636Y039104D03*
X021380Y039104D03*
X021124Y039104D03*
X020868Y039104D03*
X020612Y039104D03*
D23*
X010822Y039471D03*
X010822Y038561D03*
X010822Y037651D03*
X010822Y040899D03*
X010822Y041809D03*
X010822Y042719D03*
D24*
X008382Y041809D03*
X008382Y038561D03*
D25*
X010165Y033474D03*
X010165Y032474D03*
X010165Y030474D03*
X010165Y029474D03*
X001165Y029474D03*
X001165Y030474D03*
X001165Y033474D03*
D26*
X002165Y028374D03*
X009165Y034574D03*
D27*
X012555Y048226D03*
X010705Y049408D03*
X012555Y050589D03*
D28*
X012555Y046762D03*
X012555Y042762D03*
D29*
X010587Y008345D03*
D30*
X028598Y032793D03*
X028598Y033502D03*
X049169Y019329D03*
X049169Y018620D03*
D31*
X049898Y017006D03*
X051000Y017006D03*
X026728Y042616D03*
X024957Y042616D03*
X024957Y045923D03*
X026728Y045923D03*
D32*
X033549Y039151D03*
X034049Y039151D03*
X034549Y039151D03*
X035049Y039151D03*
X035549Y039151D03*
X036049Y039151D03*
X036549Y039151D03*
X036549Y036916D03*
X036049Y036916D03*
X035549Y036916D03*
X035049Y036916D03*
X034549Y036916D03*
X034049Y036916D03*
X033549Y036916D03*
X039947Y036916D03*
X040447Y036916D03*
X040947Y036916D03*
X041447Y036916D03*
X041947Y036916D03*
X042447Y036916D03*
X042947Y036916D03*
X042947Y039151D03*
X042447Y039151D03*
X041947Y039151D03*
X041447Y039151D03*
X040947Y039151D03*
X040447Y039151D03*
X039947Y039151D03*
D33*
X043819Y004266D03*
X055670Y004264D03*
D34*
X045098Y015193D03*
X044626Y015191D03*
D35*
X045611Y015191D03*
X046276Y015191D03*
X047228Y015191D03*
X048213Y015191D03*
X049197Y015191D03*
X050181Y015191D03*
X051165Y015191D03*
X052150Y015191D03*
X053134Y015191D03*
D36*
X044874Y014089D03*
D37*
X053142Y014089D03*
D38*
X067181Y049683D03*
X001236Y006376D03*
D39*
X005764Y023502D03*
X008126Y023502D03*
D40*
X008496Y049969D02*
X008496Y050973D01*
X006937Y050973D02*
X006937Y049969D01*
X005378Y049969D02*
X005378Y050973D01*
X003819Y050973D02*
X003819Y049969D01*
D41*
X007725Y036691D03*
X007725Y035510D03*
X008414Y027636D03*
X008414Y026455D03*
D42*
X007692Y026935D02*
X007692Y027155D01*
X007692Y026935D02*
X006836Y026935D01*
X006836Y027155D01*
X007692Y027155D01*
X007003Y035990D02*
X007003Y036210D01*
X007003Y035990D02*
X006147Y035990D01*
X006147Y036210D01*
X007003Y036210D01*
D43*
X007724Y036100D03*
X008413Y027045D03*
D44*
X025478Y011689D03*
X025478Y011189D03*
X025478Y010689D03*
X025478Y010189D03*
X027526Y010189D03*
X027526Y010689D03*
X027526Y011189D03*
X027526Y011689D03*
X028978Y011689D03*
X028978Y011189D03*
X028978Y010689D03*
X028978Y010189D03*
X031026Y010189D03*
X031026Y010689D03*
X031026Y011189D03*
X031026Y011689D03*
X032478Y011689D03*
X032478Y011189D03*
X032478Y010689D03*
X032478Y010189D03*
X034526Y010189D03*
X034526Y010689D03*
X034526Y011189D03*
X034526Y011689D03*
X036103Y011689D03*
X036103Y011189D03*
X036103Y010689D03*
X036103Y010189D03*
X038151Y010189D03*
X038151Y010689D03*
X038151Y011189D03*
X038151Y011689D03*
D45*
X033929Y006935D03*
D46*
X032839Y006935D03*
X031748Y006935D03*
X030657Y006935D03*
X029567Y006935D03*
X030114Y005817D03*
X031205Y005817D03*
X032291Y005817D03*
X033382Y005817D03*
D47*
X036669Y006376D03*
X026827Y006376D03*
D48*
X027877Y008939D03*
X028627Y008939D03*
X031377Y008939D03*
X032127Y008939D03*
X034877Y008939D03*
X035752Y008939D03*
X038502Y008939D03*
X042378Y010510D03*
X045823Y011888D03*
X046709Y013364D03*
X047791Y012872D03*
X049169Y010510D03*
X054386Y011888D03*
X055665Y009329D03*
X057929Y009329D03*
X059898Y009329D03*
X061866Y009329D03*
X063835Y009329D03*
X052417Y020057D03*
X051827Y020648D03*
X049169Y019959D03*
X049169Y022616D03*
X044642Y021927D03*
X045724Y025864D03*
X046315Y026356D03*
X045528Y026947D03*
X045035Y027439D03*
X044445Y027931D03*
X045035Y028423D03*
X044150Y028915D03*
X040508Y029998D03*
X040016Y030490D03*
X039524Y030982D03*
X038146Y032360D03*
X037358Y032754D03*
X037752Y033541D03*
X038638Y033935D03*
X039425Y033541D03*
X039031Y032754D03*
X039917Y034329D03*
X040409Y034723D03*
X041000Y035116D03*
X042476Y035608D03*
X042969Y036100D03*
X041886Y037675D03*
X040902Y038069D03*
X040508Y038463D03*
X039425Y037675D03*
X039031Y038069D03*
X038638Y038463D03*
X038146Y038463D03*
X037752Y038069D03*
X037358Y037675D03*
X036571Y038463D03*
X035549Y038069D03*
X035049Y037675D03*
X036571Y036100D03*
X035587Y035608D03*
X035685Y034723D03*
X034602Y034723D03*
X034012Y035116D03*
X033520Y034329D03*
X032240Y033935D03*
X032634Y033541D03*
X033126Y033148D03*
X034012Y032754D03*
X034406Y031967D03*
X034898Y032360D03*
X036079Y031967D03*
X035094Y033148D03*
X036669Y030392D03*
X033913Y028719D03*
X033224Y028719D03*
X031846Y028128D03*
X030961Y027636D03*
X031551Y027144D03*
X032732Y026061D03*
X033224Y026455D03*
X033913Y026947D03*
X036669Y027636D03*
X038638Y027636D03*
X040705Y026356D03*
X040213Y025864D03*
X038638Y025864D03*
X036669Y025864D03*
X036276Y023797D03*
X036669Y023305D03*
X035587Y023207D03*
X035193Y023797D03*
X036079Y022616D03*
X036669Y021435D03*
X038146Y021927D03*
X037654Y023404D03*
X033618Y021041D03*
X033224Y021435D03*
X032535Y020451D03*
X032142Y019959D03*
X032831Y019565D03*
X033126Y019959D03*
X034110Y019959D03*
X035587Y019565D03*
X034799Y016809D03*
X034602Y016219D03*
X033913Y016219D03*
X033520Y015726D03*
X032877Y015537D03*
X032437Y015431D03*
X032142Y015825D03*
X032535Y016219D03*
X031748Y017793D03*
X031945Y018384D03*
X030567Y019467D03*
X030075Y019073D03*
X029583Y019565D03*
X030272Y020549D03*
X030764Y020057D03*
X030764Y021435D03*
X030764Y023305D03*
X033224Y023305D03*
X027220Y023207D03*
X028795Y018679D03*
X029189Y018286D03*
X029976Y017597D03*
X029976Y016809D03*
X028402Y016219D03*
X027909Y015825D03*
X028402Y015333D03*
X029791Y013353D03*
X028627Y012939D03*
X027877Y012939D03*
X025646Y012939D03*
X025127Y012939D03*
X025127Y008939D03*
X019248Y009329D03*
X017476Y009821D03*
X016492Y010215D03*
X017969Y011691D03*
X018461Y012872D03*
X016492Y014349D03*
X015705Y013463D03*
X015705Y012085D03*
X014130Y010215D03*
X013539Y009821D03*
X009209Y006376D03*
X011669Y016809D03*
X016492Y019565D03*
X017280Y020057D03*
X017870Y019073D03*
X019346Y020549D03*
X025646Y017301D03*
X031377Y012939D03*
X032127Y012939D03*
X033752Y011982D03*
X035002Y012939D03*
X035752Y012939D03*
X036877Y013364D03*
X037377Y011991D03*
X038502Y012939D03*
X041591Y016219D03*
X042673Y016809D03*
X046217Y016415D03*
X047201Y016612D03*
X048185Y017203D03*
X055665Y022616D03*
X053402Y026947D03*
X052909Y027439D03*
X054386Y027931D03*
X053894Y028719D03*
X052417Y029506D03*
X051925Y029112D03*
X049169Y031474D03*
X043362Y032360D03*
X041886Y031967D03*
X041394Y033148D03*
X039917Y040136D03*
X041394Y040628D03*
X042969Y041120D03*
X049169Y040136D03*
X051433Y040136D03*
X054878Y042301D03*
X055370Y041809D03*
X060291Y040136D03*
X061276Y042301D03*
X060783Y042695D03*
X061768Y044171D03*
X062260Y043778D03*
X063244Y044565D03*
X062752Y044959D03*
X047693Y048699D03*
X046709Y048108D03*
X035685Y047518D03*
X035193Y047026D03*
X029780Y048699D03*
X029287Y048108D03*
X027811Y048502D03*
X027319Y048108D03*
X026335Y048896D03*
X026827Y049289D03*
X023972Y048108D03*
X023579Y048502D03*
X022791Y048896D03*
X022102Y049289D03*
X022890Y047518D03*
X023185Y047026D03*
X018461Y046041D03*
X017870Y046534D03*
X020921Y042006D03*
X020921Y041514D03*
X021512Y041612D03*
X020429Y040628D03*
X019937Y041120D03*
X019740Y039644D03*
X020626Y039644D03*
X021413Y040136D03*
X021217Y038463D03*
X021610Y038069D03*
X022201Y037478D03*
X023480Y038069D03*
X023480Y036100D03*
X024858Y036100D03*
X026138Y034230D03*
X024858Y032754D03*
X026827Y031868D03*
X027220Y032262D03*
X028598Y030786D03*
X027811Y029604D03*
X027024Y029604D03*
X025055Y029604D03*
X025055Y030589D03*
X021906Y029900D03*
X022201Y028915D03*
X021610Y028522D03*
X018854Y030392D03*
X017870Y031671D03*
X016591Y031671D03*
X017772Y033443D03*
X019346Y033443D03*
X020528Y031967D03*
X021217Y031967D03*
X018953Y035116D03*
X019346Y035608D03*
X021413Y036100D03*
X016689Y036100D03*
X015409Y037478D03*
X015016Y038463D03*
X014228Y037380D03*
X013047Y037380D03*
X011669Y038561D03*
X011079Y036888D03*
X012457Y035510D03*
X009602Y035510D03*
X005370Y035018D03*
X004780Y035707D03*
X003205Y034132D03*
X006937Y039849D03*
X011079Y040234D03*
X014228Y040136D03*
X014031Y042203D03*
X016689Y041514D03*
X017083Y040136D03*
X023972Y041612D03*
X024366Y042006D03*
X025252Y040136D03*
X029091Y043778D03*
X029484Y043384D03*
X030075Y042892D03*
X030173Y042400D03*
X030764Y042400D03*
X032732Y041711D03*
X033520Y040136D03*
X034549Y040628D03*
X035882Y041120D03*
X028795Y046534D03*
X028303Y046041D03*
X027909Y044959D03*
X028303Y044565D03*
X028697Y044171D03*
X027811Y036100D03*
X028598Y034230D03*
X031551Y034034D03*
X031551Y032262D03*
X031748Y031868D03*
X031059Y029506D03*
X031748Y029112D03*
X030370Y028620D03*
X018461Y027636D03*
X018461Y027144D03*
X016295Y028128D03*
X014130Y028915D03*
X013539Y028522D03*
X012457Y027636D03*
X010193Y027636D03*
X005764Y025471D03*
X010193Y021927D03*
X011669Y022616D03*
X015213Y029900D03*
X012457Y031671D03*
X042575Y004211D03*
X058717Y029506D03*
X059307Y029998D03*
X059799Y030490D03*
X060291Y030982D03*
M02*
