%
M48
M72
T01C0.0200
T02C0.0320
T03C0.0360
T04C0.0394
T05C0.0400
T06C0.0433
T07C0.0440
T08C0.0591
T09C0.0630
T10C0.0669
T11C0.0900
T12C0.1180
T13C0.1300
%
T01
X9209Y6376
X13539Y9821
X14130Y10215
X16492Y10215
X17476Y9821
X19248Y9329
X17969Y11691
X18461Y12872
X16492Y14349
X15705Y13463
X15705Y12085
X11669Y16809
X16492Y19565
X17280Y20057
X17870Y19073
X19346Y20549
X25646Y17301
X27909Y15825
X28402Y16219
X28402Y15333
X29976Y16809
X29976Y17597
X29189Y18286
X28795Y18679
X30075Y19073
X30567Y19467
X29583Y19565
X30272Y20549
X30764Y20057
X30764Y21435
X32142Y19959
X32535Y20451
X33126Y19959
X32831Y19565
X34110Y19959
X33618Y21041
X33224Y21435
X33224Y23305
X35193Y23797
X35587Y23207
X36079Y22616
X36669Y23305
X36276Y23797
X37654Y23404
X38146Y21927
X36669Y21435
X35587Y19565
X34799Y16809
X34602Y16219
X33913Y16219
X33520Y15726
X32877Y15537
X32437Y15431
X32142Y15825
X32535Y16219
X31748Y17793
X31945Y18384
X29791Y13353
X28627Y12939
X27877Y12939
X25646Y12939
X25127Y12939
X25127Y8939
X27877Y8939
X28627Y8939
X31377Y8939
X32127Y8939
X34877Y8939
X35752Y8939
X38502Y8939
X42378Y10510
X45823Y11888
X46709Y13364
X47791Y12872
X49169Y10510
X54386Y11888
X55665Y9329
X57929Y9329
X59898Y9329
X61866Y9329
X63835Y9329
X52417Y20057
X51827Y20648
X49169Y19959
X49169Y22616
X44642Y21927
X45724Y25864
X46315Y26356
X45528Y26947
X45035Y27439
X44445Y27931
X45035Y28423
X44150Y28915
X40508Y29998
X40016Y30490
X39524Y30982
X38146Y32360
X37358Y32754
X37752Y33541
X38638Y33935
X39425Y33541
X39031Y32754
X39917Y34329
X40409Y34723
X41000Y35116
X42476Y35608
X42969Y36100
X41886Y37675
X40902Y38069
X40508Y38463
X39425Y37675
X39031Y38069
X38638Y38463
X38146Y38463
X37752Y38069
X37358Y37675
X36571Y38463
X35549Y38069
X35049Y37675
X36571Y36100
X35587Y35608
X35685Y34723
X34602Y34723
X34012Y35116
X33520Y34329
X32240Y33935
X32634Y33541
X33126Y33148
X34012Y32754
X34406Y31967
X34898Y32360
X36079Y31967
X35094Y33148
X36669Y30392
X33913Y28719
X33224Y28719
X31846Y28128
X30961Y27636
X31551Y27144
X32732Y26061
X33224Y26455
X33913Y26947
X36669Y27636
X38638Y27636
X40705Y26356
X40213Y25864
X38638Y25864
X36669Y25864
X31748Y29112
X31059Y29506
X30370Y28620
X27811Y29604
X27024Y29604
X28598Y30786
X26827Y31868
X27220Y32262
X24858Y32754
X26138Y34230
X24858Y36100
X23480Y36100
X22201Y37478
X21610Y38069
X21217Y38463
X20626Y39644
X21413Y40136
X20429Y40628
X19937Y41120
X20921Y41514
X20921Y42006
X21512Y41612
X19740Y39644
X17083Y40136
X16689Y41514
X14031Y42203
X14228Y40136
X15016Y38463
X15409Y37478
X14228Y37380
X13047Y37380
X11669Y38561
X11079Y36888
X12457Y35510
X9602Y35510
X5370Y35018
X4780Y35707
X3205Y34132
X6937Y39849
X11079Y40234
X16689Y36100
X18953Y35116
X19346Y35608
X21413Y36100
X23480Y38069
X25252Y40136
X23972Y41612
X24366Y42006
X27909Y44959
X28303Y44565
X28697Y44171
X29091Y43778
X29484Y43384
X30075Y42892
X30173Y42400
X30764Y42400
X32732Y41711
X33520Y40136
X34549Y40628
X35882Y41120
X39917Y40136
X41394Y40628
X42969Y41120
X49169Y40136
X51433Y40136
X54878Y42301
X55370Y41809
X60291Y40136
X61276Y42301
X60783Y42695
X61768Y44171
X62260Y43778
X63244Y44565
X62752Y44959
X47693Y48699
X46709Y48108
X35685Y47518
X35193Y47026
X29780Y48699
X29287Y48108
X27811Y48502
X27319Y48108
X26335Y48896
X26827Y49289
X23972Y48108
X23579Y48502
X22791Y48896
X22102Y49289
X22890Y47518
X23185Y47026
X18461Y46041
X17870Y46534
X28303Y46041
X28795Y46534
X27811Y36100
X28598Y34230
X31551Y34034
X31551Y32262
X31748Y31868
X25055Y30589
X25055Y29604
X22201Y28915
X21610Y28522
X21906Y29900
X21217Y31967
X20528Y31967
X19346Y33443
X17772Y33443
X17870Y31671
X16591Y31671
X15213Y29900
X14130Y28915
X13539Y28522
X12457Y27636
X10193Y27636
X5764Y25471
X10193Y21927
X11669Y22616
X18461Y27144
X18461Y27636
X16295Y28128
X18854Y30392
X12457Y31671
X27220Y23207
X30764Y23305
X41591Y16219
X42673Y16809
X46217Y16415
X47201Y16612
X48185Y17203
X55665Y22616
X53402Y26947
X52909Y27439
X54386Y27931
X53894Y28719
X52417Y29506
X51925Y29112
X49169Y31474
X43362Y32360
X41886Y31967
X41394Y33148
X58717Y29506
X59307Y29998
X59799Y30490
X60291Y30982
X38502Y12939
X37377Y11991
X36877Y13364
X35752Y12939
X35002Y12939
X33752Y11982
X32127Y12939
X31377Y12939
X42575Y4211
T02
X3652Y4439
X4652Y4439
X10652Y4439
X11652Y4439
X12652Y4439
X13652Y4439
X57852Y4439
X58852Y4439
X59852Y4439
X60852Y4439
X61852Y4439
X62852Y4439
X63852Y4439
X64852Y4439
T03
X19248Y7360
X19248Y8140
X18264Y8140
X18264Y7360
T04
X10165Y29474
X10165Y30474
X10165Y32474
X10165Y33474
X1165Y33474
X1165Y30474
X1165Y29474
T05
X2319Y18892
X2319Y17892
X10587Y8345
X11587Y8345
X12587Y8345
X13587Y8345
X29567Y6935
X30657Y6935
X31748Y6935
X32839Y6935
X33929Y6935
X33382Y5817
X32291Y5817
X31205Y5817
X30114Y5817
X36606Y18671
X37606Y18671
X38606Y18671
X39606Y18671
X40606Y18671
X41606Y18671
X42606Y18671
X43606Y18671
X44606Y18671
X44606Y19671
X43606Y19671
X42606Y19671
X41606Y19671
X40606Y19671
X39606Y19671
X38606Y19671
X37606Y19671
X36606Y19671
X23882Y29573
X22882Y29573
X22882Y30573
X23882Y30573
X23882Y31573
X22882Y31573
X22882Y32573
X23882Y32573
X23882Y33573
X22882Y33573
X25236Y37372
X25236Y38372
X26236Y38372
X26236Y37372
X27236Y37372
X27236Y38372
X13047Y40809
X13047Y41809
X16953Y50167
X17953Y50167
X18953Y50167
X19953Y50167
X20953Y50167
X20953Y51167
X19953Y51167
X18953Y51167
X17953Y51167
X16953Y51167
X25811Y51167
X25811Y50167
X26811Y50167
X27811Y50167
X28811Y50167
X29811Y50167
X29811Y51167
X28811Y51167
X27811Y51167
X26811Y51167
X34669Y51167
X34669Y50167
X35669Y50167
X36669Y50167
X37669Y50167
X38669Y50167
X38669Y51167
X37669Y51167
X36669Y51167
X35669Y51167
X51402Y51167
X52402Y51167
X53402Y51167
X54402Y51167
X55402Y51167
X55402Y50167
X54402Y50167
X53402Y50167
X52402Y50167
X51402Y50167
X60260Y50167
X61260Y50167
X62260Y50167
X63260Y50167
X64260Y50167
X64260Y51167
X63260Y51167
X62260Y51167
X61260Y51167
X60260Y51167
T06
X44874Y14089
T07
X12555Y42762
X12555Y46762
T08
X9165Y34574
X2165Y28374
T09
X53142Y14089
T10
X8496Y50471
X6937Y50471
X5378Y50471
X3819Y50471
T11
X16386Y6290
X21126Y6290
T12
X12555Y48226
X10705Y49408
X12555Y50589
T13
X1236Y51061
X23874Y24093
X23874Y14250
X26827Y6376
X36669Y6376
X57339Y14250
X67181Y11789
X57339Y24093
X67181Y51160
X1236Y11789
M30
