G75*
G70*
%OFA0B0*%
%FSLAX24Y24*%
%IPPOS*%
%LPD*%
%AMOC8*
5,1,8,0,0,1.08239X$1,22.5*
%
%ADD10C,0.0640*%
%ADD11C,0.1380*%
%ADD12OC8,0.0680*%
%ADD13C,0.0680*%
%ADD14C,0.0600*%
%ADD15C,0.0674*%
%ADD16C,0.0966*%
%ADD17C,0.1660*%
%ADD18C,0.0740*%
%ADD19R,0.0680X0.0680*%
%ADD20C,0.0513*%
%ADD21C,0.0710*%
%ADD22C,0.1084*%
%ADD23R,0.0820X0.0820*%
%ADD24C,0.0820*%
%ADD25C,0.2080*%
%ADD26C,0.0440*%
D10*
X018264Y007360D03*
X018264Y008140D03*
X019248Y008140D03*
X019248Y007360D03*
D11*
X021126Y006290D03*
X016386Y006290D03*
X023874Y014250D03*
X023874Y024093D03*
X001236Y011789D03*
X001236Y051061D03*
X057339Y024093D03*
X057339Y014250D03*
X067181Y011789D03*
X067181Y051160D03*
D12*
X064260Y051167D03*
X063260Y051167D03*
X062260Y051167D03*
X062260Y050167D03*
X063260Y050167D03*
X064260Y050167D03*
X061260Y050167D03*
X060260Y050167D03*
X060260Y051167D03*
X061260Y051167D03*
X055402Y051167D03*
X054402Y051167D03*
X053402Y051167D03*
X053402Y050167D03*
X054402Y050167D03*
X055402Y050167D03*
X052402Y050167D03*
X051402Y050167D03*
X051402Y051167D03*
X052402Y051167D03*
X038669Y051167D03*
X037669Y051167D03*
X037669Y050167D03*
X038669Y050167D03*
X036669Y050167D03*
X035669Y050167D03*
X034669Y050167D03*
X034669Y051167D03*
X035669Y051167D03*
X036669Y051167D03*
X029811Y051167D03*
X028811Y051167D03*
X028811Y050167D03*
X029811Y050167D03*
X027811Y050167D03*
X026811Y050167D03*
X025811Y050167D03*
X025811Y051167D03*
X026811Y051167D03*
X027811Y051167D03*
X020953Y051167D03*
X019953Y051167D03*
X019953Y050167D03*
X020953Y050167D03*
X018953Y050167D03*
X017953Y050167D03*
X016953Y050167D03*
X016953Y051167D03*
X017953Y051167D03*
X018953Y051167D03*
X025236Y038372D03*
X026236Y038372D03*
X026236Y037372D03*
X027236Y037372D03*
X027236Y038372D03*
X023882Y033573D03*
X022882Y033573D03*
X022882Y032573D03*
X023882Y032573D03*
X023882Y031573D03*
X022882Y031573D03*
X022882Y030573D03*
X023882Y030573D03*
X023882Y029573D03*
X022882Y029573D03*
X036606Y019671D03*
X037606Y019671D03*
X037606Y018671D03*
X036606Y018671D03*
X038606Y018671D03*
X039606Y018671D03*
X040606Y018671D03*
X041606Y018671D03*
X042606Y018671D03*
X043606Y018671D03*
X044606Y018671D03*
X044606Y019671D03*
X043606Y019671D03*
X042606Y019671D03*
X041606Y019671D03*
X040606Y019671D03*
X039606Y019671D03*
X038606Y019671D03*
D13*
X025236Y037372D03*
X013047Y040809D03*
X013047Y041809D03*
X002319Y018892D03*
X002319Y017892D03*
X011587Y008345D03*
X012587Y008345D03*
X013587Y008345D03*
D14*
X003652Y004439D03*
X004652Y004439D03*
X010652Y004439D03*
X011652Y004439D03*
X012652Y004439D03*
X013652Y004439D03*
X057852Y004439D03*
X058852Y004439D03*
X059852Y004439D03*
X060852Y004439D03*
X061852Y004439D03*
X062852Y004439D03*
X063852Y004439D03*
X064852Y004439D03*
D15*
X010165Y029474D03*
X010165Y030474D03*
X010165Y032474D03*
X010165Y033474D03*
X001165Y033474D03*
X001165Y030474D03*
X001165Y029474D03*
D16*
X002165Y028374D03*
X009165Y034574D03*
D17*
X012555Y048226D03*
X010705Y049408D03*
X012555Y050589D03*
D18*
X012555Y046762D03*
X012555Y042762D03*
D19*
X010587Y008345D03*
D20*
X044874Y014089D03*
D21*
X053142Y014089D03*
D22*
X008496Y049969D02*
X008496Y050973D01*
X006937Y050973D02*
X006937Y049969D01*
X005378Y049969D02*
X005378Y050973D01*
X003819Y050973D02*
X003819Y049969D01*
D23*
X033929Y006935D03*
D24*
X032839Y006935D03*
X031748Y006935D03*
X030657Y006935D03*
X029567Y006935D03*
X030114Y005817D03*
X031205Y005817D03*
X032291Y005817D03*
X033382Y005817D03*
D25*
X036669Y006376D03*
X026827Y006376D03*
D26*
X027877Y008939D03*
X028627Y008939D03*
X031377Y008939D03*
X032127Y008939D03*
X034877Y008939D03*
X035752Y008939D03*
X038502Y008939D03*
X042378Y010510D03*
X045823Y011888D03*
X046709Y013364D03*
X047791Y012872D03*
X049169Y010510D03*
X054386Y011888D03*
X055665Y009329D03*
X057929Y009329D03*
X059898Y009329D03*
X061866Y009329D03*
X063835Y009329D03*
X052417Y020057D03*
X051827Y020648D03*
X049169Y019959D03*
X049169Y022616D03*
X044642Y021927D03*
X045724Y025864D03*
X046315Y026356D03*
X045528Y026947D03*
X045035Y027439D03*
X044445Y027931D03*
X045035Y028423D03*
X044150Y028915D03*
X040508Y029998D03*
X040016Y030490D03*
X039524Y030982D03*
X038146Y032360D03*
X037358Y032754D03*
X037752Y033541D03*
X038638Y033935D03*
X039425Y033541D03*
X039031Y032754D03*
X039917Y034329D03*
X040409Y034723D03*
X041000Y035116D03*
X042476Y035608D03*
X042969Y036100D03*
X041886Y037675D03*
X040902Y038069D03*
X040508Y038463D03*
X039425Y037675D03*
X039031Y038069D03*
X038638Y038463D03*
X038146Y038463D03*
X037752Y038069D03*
X037358Y037675D03*
X036571Y038463D03*
X035549Y038069D03*
X035049Y037675D03*
X036571Y036100D03*
X035587Y035608D03*
X035685Y034723D03*
X034602Y034723D03*
X034012Y035116D03*
X033520Y034329D03*
X032240Y033935D03*
X032634Y033541D03*
X033126Y033148D03*
X034012Y032754D03*
X034406Y031967D03*
X034898Y032360D03*
X036079Y031967D03*
X035094Y033148D03*
X036669Y030392D03*
X033913Y028719D03*
X033224Y028719D03*
X031846Y028128D03*
X030961Y027636D03*
X031551Y027144D03*
X032732Y026061D03*
X033224Y026455D03*
X033913Y026947D03*
X036669Y027636D03*
X038638Y027636D03*
X040705Y026356D03*
X040213Y025864D03*
X038638Y025864D03*
X036669Y025864D03*
X036276Y023797D03*
X036669Y023305D03*
X035587Y023207D03*
X035193Y023797D03*
X036079Y022616D03*
X036669Y021435D03*
X038146Y021927D03*
X037654Y023404D03*
X033618Y021041D03*
X033224Y021435D03*
X032535Y020451D03*
X032142Y019959D03*
X032831Y019565D03*
X033126Y019959D03*
X034110Y019959D03*
X035587Y019565D03*
X034799Y016809D03*
X034602Y016219D03*
X033913Y016219D03*
X033520Y015726D03*
X032877Y015537D03*
X032437Y015431D03*
X032142Y015825D03*
X032535Y016219D03*
X031748Y017793D03*
X031945Y018384D03*
X030567Y019467D03*
X030075Y019073D03*
X029583Y019565D03*
X030272Y020549D03*
X030764Y020057D03*
X030764Y021435D03*
X030764Y023305D03*
X033224Y023305D03*
X027220Y023207D03*
X028795Y018679D03*
X029189Y018286D03*
X029976Y017597D03*
X029976Y016809D03*
X028402Y016219D03*
X027909Y015825D03*
X028402Y015333D03*
X029791Y013353D03*
X028627Y012939D03*
X027877Y012939D03*
X025646Y012939D03*
X025127Y012939D03*
X025127Y008939D03*
X019248Y009329D03*
X017476Y009821D03*
X016492Y010215D03*
X017969Y011691D03*
X018461Y012872D03*
X016492Y014349D03*
X015705Y013463D03*
X015705Y012085D03*
X014130Y010215D03*
X013539Y009821D03*
X009209Y006376D03*
X011669Y016809D03*
X016492Y019565D03*
X017280Y020057D03*
X017870Y019073D03*
X019346Y020549D03*
X025646Y017301D03*
X031377Y012939D03*
X032127Y012939D03*
X033752Y011982D03*
X035002Y012939D03*
X035752Y012939D03*
X036877Y013364D03*
X037377Y011991D03*
X038502Y012939D03*
X041591Y016219D03*
X042673Y016809D03*
X046217Y016415D03*
X047201Y016612D03*
X048185Y017203D03*
X055665Y022616D03*
X053402Y026947D03*
X052909Y027439D03*
X054386Y027931D03*
X053894Y028719D03*
X052417Y029506D03*
X051925Y029112D03*
X049169Y031474D03*
X043362Y032360D03*
X041886Y031967D03*
X041394Y033148D03*
X039917Y040136D03*
X041394Y040628D03*
X042969Y041120D03*
X049169Y040136D03*
X051433Y040136D03*
X054878Y042301D03*
X055370Y041809D03*
X060291Y040136D03*
X061276Y042301D03*
X060783Y042695D03*
X061768Y044171D03*
X062260Y043778D03*
X063244Y044565D03*
X062752Y044959D03*
X047693Y048699D03*
X046709Y048108D03*
X035685Y047518D03*
X035193Y047026D03*
X029780Y048699D03*
X029287Y048108D03*
X027811Y048502D03*
X027319Y048108D03*
X026335Y048896D03*
X026827Y049289D03*
X023972Y048108D03*
X023579Y048502D03*
X022791Y048896D03*
X022102Y049289D03*
X022890Y047518D03*
X023185Y047026D03*
X018461Y046041D03*
X017870Y046534D03*
X020921Y042006D03*
X020921Y041514D03*
X021512Y041612D03*
X020429Y040628D03*
X019937Y041120D03*
X019740Y039644D03*
X020626Y039644D03*
X021413Y040136D03*
X021217Y038463D03*
X021610Y038069D03*
X022201Y037478D03*
X023480Y038069D03*
X023480Y036100D03*
X024858Y036100D03*
X026138Y034230D03*
X024858Y032754D03*
X026827Y031868D03*
X027220Y032262D03*
X028598Y030786D03*
X027811Y029604D03*
X027024Y029604D03*
X025055Y029604D03*
X025055Y030589D03*
X021906Y029900D03*
X022201Y028915D03*
X021610Y028522D03*
X018854Y030392D03*
X017870Y031671D03*
X016591Y031671D03*
X017772Y033443D03*
X019346Y033443D03*
X020528Y031967D03*
X021217Y031967D03*
X018953Y035116D03*
X019346Y035608D03*
X021413Y036100D03*
X016689Y036100D03*
X015409Y037478D03*
X015016Y038463D03*
X014228Y037380D03*
X013047Y037380D03*
X011669Y038561D03*
X011079Y036888D03*
X012457Y035510D03*
X009602Y035510D03*
X005370Y035018D03*
X004780Y035707D03*
X003205Y034132D03*
X006937Y039849D03*
X011079Y040234D03*
X014228Y040136D03*
X014031Y042203D03*
X016689Y041514D03*
X017083Y040136D03*
X023972Y041612D03*
X024366Y042006D03*
X025252Y040136D03*
X029091Y043778D03*
X029484Y043384D03*
X030075Y042892D03*
X030173Y042400D03*
X030764Y042400D03*
X032732Y041711D03*
X033520Y040136D03*
X034549Y040628D03*
X035882Y041120D03*
X028795Y046534D03*
X028303Y046041D03*
X027909Y044959D03*
X028303Y044565D03*
X028697Y044171D03*
X027811Y036100D03*
X028598Y034230D03*
X031551Y034034D03*
X031551Y032262D03*
X031748Y031868D03*
X031059Y029506D03*
X031748Y029112D03*
X030370Y028620D03*
X018461Y027636D03*
X018461Y027144D03*
X016295Y028128D03*
X014130Y028915D03*
X013539Y028522D03*
X012457Y027636D03*
X010193Y027636D03*
X005764Y025471D03*
X010193Y021927D03*
X011669Y022616D03*
X015213Y029900D03*
X012457Y031671D03*
X042575Y004211D03*
X058717Y029506D03*
X059307Y029998D03*
X059799Y030490D03*
X060291Y030982D03*
M02*
